<svg xmlns="http://www.w3.org/2000/svg" viewBox="0 0 256 256" width="256" height="256">
  <defs>
    <linearGradient id="bg" x1="0%" y1="0%" x2="100%" y2="100%">
      <stop offset="0%" style="stop-color:#1a1a2e"/>
      <stop offset="100%" style="stop-color:#0f3460"/>
    </linearGradient>
    <linearGradient id="ghost" x1="0%" y1="0%" x2="100%" y2="100%">
      <stop offset="0%" style="stop-color:#e94560"/>
      <stop offset="100%" style="stop-color:#ff6b6b"/>
    </linearGradient>
  </defs>
  <rect width="256" height="256" rx="40" fill="url(#bg)"/>
  <g transform="translate(40, 50)">
    <path d="M88 20 C60 20 40 45 40 80 C40 100 50 110 50 130 C50 140 60 145 70 145 
           C75 145 78 142 80 140 C82 142 85 145 90 145 
           C100 145 110 140 110 130 C110 110 120 100 120 80 
           C120 45 100 20 88 20 Z" 
          fill="url(#ghost)" opacity="0.9"/>
    <circle cx="65" cy="65" r="8" fill="#fff"/>
    <circle cx="105" cy="65" r="8" fill="#fff"/>
    <ellipse cx="85" cy="95" rx="15" ry="10" fill="#fff" opacity="0.5"/>
  </g>
</svg>
